<mxfile host="65bd71144e">
    <diagram id="fumGI-dkxmxhGxyBm8iC" name="Page-1">
        <mxGraphModel dx="817" dy="442" grid="1" gridSize="10" guides="1" tooltips="1" connect="1" arrows="1" fold="1" page="1" pageScale="1" pageWidth="850" pageHeight="1100" math="0" shadow="0">
            <root>
                <mxCell id="0"/>
                <mxCell id="1" parent="0"/>
                <mxCell id="44" value="HTTP Server" style="rounded=0;whiteSpace=wrap;html=1;fillColor=#f5f5f5;fontColor=#333333;strokeColor=none;verticalAlign=top;align=left;" parent="1" vertex="1">
                    <mxGeometry x="160" y="320" width="520" height="270" as="geometry"/>
                </mxCell>
                <mxCell id="33" value="middleware" style="rounded=0;whiteSpace=wrap;html=1;" parent="1" vertex="1">
                    <mxGeometry x="250" y="360" width="70" height="210" as="geometry"/>
                </mxCell>
                <mxCell id="34" value="middleware" style="rounded=0;whiteSpace=wrap;html=1;" parent="1" vertex="1">
                    <mxGeometry x="330" y="360" width="70" height="210" as="geometry"/>
                </mxCell>
                <mxCell id="35" value="HTTPHandler" style="rounded=0;whiteSpace=wrap;html=1;fillColor=#f8cecc;strokeColor=#b85450;verticalAlign=top;align=center;" parent="1" vertex="1">
                    <mxGeometry x="420" y="330" width="250" height="120" as="geometry"/>
                </mxCell>
                <mxCell id="36" value="middleware" style="rounded=0;whiteSpace=wrap;html=1;" parent="1" vertex="1">
                    <mxGeometry x="430" y="360" width="70" height="80" as="geometry"/>
                </mxCell>
                <mxCell id="38" value="middleware" style="rounded=0;whiteSpace=wrap;html=1;" parent="1" vertex="1">
                    <mxGeometry x="510" y="360" width="70" height="80" as="geometry"/>
                </mxCell>
                <mxCell id="40" value="handler" style="rounded=0;whiteSpace=wrap;html=1;" parent="1" vertex="1">
                    <mxGeometry x="590" y="360" width="70" height="80" as="geometry"/>
                </mxCell>
                <mxCell id="48" value="HTTPHandler" style="rounded=0;whiteSpace=wrap;html=1;fillColor=#f8cecc;strokeColor=#b85450;verticalAlign=top;align=center;" parent="1" vertex="1">
                    <mxGeometry x="420" y="460" width="250" height="120" as="geometry"/>
                </mxCell>
                <mxCell id="49" value="middleware" style="rounded=0;whiteSpace=wrap;html=1;" parent="1" vertex="1">
                    <mxGeometry x="430" y="490" width="70" height="80" as="geometry"/>
                </mxCell>
                <mxCell id="50" value="middleware" style="rounded=0;whiteSpace=wrap;html=1;" parent="1" vertex="1">
                    <mxGeometry x="510" y="490" width="70" height="80" as="geometry"/>
                </mxCell>
                <mxCell id="51" value="handler" style="rounded=0;whiteSpace=wrap;html=1;" parent="1" vertex="1">
                    <mxGeometry x="590" y="490" width="70" height="80" as="geometry"/>
                </mxCell>
                <mxCell id="52" value="Multiplexer" style="rounded=0;whiteSpace=wrap;html=1;fillColor=none;" vertex="1" parent="1">
                    <mxGeometry x="170" y="360" width="70" height="210" as="geometry"/>
                </mxCell>
                <mxCell id="54" value="" style="rounded=1;whiteSpace=wrap;html=1;fillColor=none;dashed=1;strokeColor=#FF8000;" vertex="1" parent="1">
                    <mxGeometry x="190" y="380" width="490" height="50" as="geometry"/>
                </mxCell>
                <mxCell id="55" value="" style="rounded=1;whiteSpace=wrap;html=1;fillColor=none;dashed=1;strokeColor=#FF8000;" vertex="1" parent="1">
                    <mxGeometry x="190" y="510" width="490" height="50" as="geometry"/>
                </mxCell>
            </root>
        </mxGraphModel>
    </diagram>
</mxfile>